<svg xmlns="http://www.w3.org/2000/svg" width="361" height="361" fill="none" fill-opacity="0.1"><path fill="#FC5252" d="M180.5.917c48.793 0 54.881.18 74.024 1.077 19.126.898 32.146 3.897 43.603 8.35 11.853 4.562 21.838 10.74 31.822 20.707a88.13 88.13 0 0 1 20.706 31.822c4.436 11.44 7.453 24.477 8.351 43.603.844 19.143 1.077 25.231 1.077 74.024s-.179 54.881-1.077 74.024c-.898 19.126-3.915 32.146-8.351 43.603a87.685 87.685 0 0 1-20.706 31.822 88.258 88.258 0 0 1-31.822 20.706c-11.439 4.436-24.477 7.453-43.603 8.351-19.143.844-25.231 1.077-74.024 1.077s-54.881-.179-74.024-1.077c-19.126-.898-32.146-3.915-43.603-8.351a87.814 87.814 0 0 1-31.822-20.706 88.065 88.065 0 0 1-20.706-31.822c-4.454-11.44-7.453-24.477-8.35-43.603C1.15 235.381.916 229.293.916 180.5s.18-54.881 1.077-74.024c.898-19.144 3.897-32.146 8.35-43.603A87.636 87.636 0 0 1 31.052 31.05a87.942 87.942 0 0 1 31.822-20.706c11.457-4.454 24.46-7.453 43.603-8.351C125.619 1.15 131.707.917 180.5.917Zm0 89.791a89.792 89.792 0 1 0 .001 179.585 89.792 89.792 0 0 0-.001-179.585Zm116.729-4.49a22.447 22.447 0 1 0-44.894 0 22.447 22.447 0 0 0 44.894 0ZM180.5 126.626a53.874 53.874 0 1 1 .001 107.748 53.874 53.874 0 0 1-.001-107.748Z"/></svg>