<svg xmlns="http://www.w3.org/2000/svg" width="125" height="30" fill="none"><path fill="#fff" d="m35.128 3.838-5.092 25.83h-6.753l2.657-13.616-8.598 11.07h-3.21l-4.686-11.07-2.73 13.616H0l5.166-25.83h5.94l6.052 14.944L28.892 3.838h6.236ZM59.89 9.668l-3.984 20h-6.642l.406-2.066a8.397 8.397 0 0 1-2.915 1.808 9.343 9.343 0 0 1-3.284.59c-2.19 0-3.936-.59-5.24-1.771-1.28-1.181-1.919-2.866-1.919-5.056 0-.811.086-1.635.259-2.472l2.213-11.033h7.011L43.73 20.037a6.62 6.62 0 0 0-.148 1.365c0 1.747.898 2.62 2.694 2.62 1.205 0 2.202-.369 2.989-1.107.787-.762 1.328-1.882 1.623-3.358l1.993-9.89h7.01ZM68.244 30c-1.722 0-3.383-.184-4.981-.553-1.575-.37-2.805-.837-3.69-1.403l2.546-4.907c.91.565 1.992 1.02 3.247 1.365 1.254.32 2.484.48 3.69.48 2.14 0 3.21-.48 3.21-1.44 0-.393-.259-.676-.775-.848-.492-.197-1.291-.382-2.398-.554-1.477-.27-2.694-.553-3.654-.849a6.188 6.188 0 0 1-2.472-1.586c-.713-.738-1.07-1.771-1.07-3.1 0-2.312.984-4.096 2.952-5.35 1.993-1.28 4.563-1.92 7.712-1.92 1.427 0 2.804.148 4.133.444 1.328.27 2.484.652 3.468 1.143L77.69 15.83c-1.673-1.008-3.653-1.513-5.94-1.513-1.083 0-1.895.148-2.436.443-.517.27-.775.627-.775 1.07 0 .394.246.69.738.886.517.172 1.353.369 2.51.59 1.426.246 2.607.53 3.541.849.96.32 1.784.849 2.473 1.587.713.738 1.07 1.746 1.07 3.025 0 2.313-.997 4.096-2.99 5.351C73.89 29.373 71.344 30 68.245 30ZM84.585 9.668h6.974l-3.985 20H80.6l3.985-20Zm4.465-2.214c-1.205 0-2.177-.332-2.915-.996-.738-.665-1.107-1.489-1.107-2.473 0-1.156.406-2.103 1.218-2.841C87.082.38 88.176 0 89.53 0c1.23 0 2.214.32 2.952.96.738.614 1.107 1.414 1.107 2.398 0 1.205-.418 2.19-1.255 2.952-.836.763-1.93 1.144-3.284 1.144ZM108.404 18.524l6.716 11.144h-8.191l-4.096-6.827-2.878 2.51-.849 4.317h-7.01l5.46-27.38h7.011l-2.841 14.206 8.081-6.826h8.855l-10.258 8.856ZM120.535 30c-1.156 0-2.115-.357-2.878-1.07-.738-.738-1.107-1.66-1.107-2.768 0-1.328.431-2.398 1.292-3.21.885-.836 1.955-1.255 3.21-1.255 1.181 0 2.128.357 2.841 1.07.738.69 1.107 1.612 1.107 2.768 0 1.304-.443 2.374-1.328 3.21-.861.837-1.907 1.255-3.137 1.255Z"/></svg>