<svg style="display:none" aria-hidden="true" xmlns="http://www.w3.org/2000/svg" xmlns:xlink="http://www.w3.org/1999/xlink"><symbol viewBox="0 0 24 24" id="icon-add"><g clip-path="url(#aaclip0_884_18407)"><path d="M11 11V5H13V11H19V13H13V19H11V13H5V11H11Z"/></g><defs><clipPath id="aaclip0_884_18407"><rect width="24" height="24"/></clipPath></defs></symbol><symbol viewBox="0 0 24 24" id="icon-arrow-up"><g clip-path="url(#abclip0_884_18739)"><path d="M11.0002 7.828L5.63617 13.192L4.22217 11.778L12.0002 4L19.7782 11.778L18.3642 13.192L13.0002 7.828L13.0002 20L11.0002 20L11.0002 7.828Z"/></g><defs><clipPath id="abclip0_884_18739"><rect width="24" height="24"/></clipPath></defs></symbol><symbol viewBox="0 0 24 24" id="icon-arrow-xs"><g clip-path="url(#acclip0_884_18751)"><path d="M11.9998 11.828L9.17184 14.657L7.75684 13.243L11.9998 9L16.2428 13.243L14.8278 14.657L11.9998 11.828Z"/></g><defs><clipPath id="acclip0_884_18751"><rect width="24" height="24"/></clipPath></defs></symbol><symbol viewBox="0 0 40 40" id="icon-bagpipes"><path d="M5.85938 7.10938H1.17188C0.524141 7.10938 0 7.63352 0 8.28125C0 8.92898 0.524141 9.45312 1.17188 9.45312H2.34375V14.1406H4.6875V9.45312H5.85938C6.50711 9.45312 7.03125 8.92898 7.03125 8.28125C7.03125 7.63352 6.50711 7.10938 5.85938 7.10938Z"/><path d="M36.4844 14.1406H35.3125V9.23727C36.6736 8.75187 37.6562 7.46328 37.6562 5.9375C37.6562 3.99891 36.0792 2.42188 34.1406 2.42188C32.202 2.42188 30.625 3.99891 30.625 5.9375C30.625 7.46328 31.6077 8.75187 32.9688 9.23727V14.1406H31.7969C31.1491 14.1406 30.625 14.6648 30.625 15.3125C30.625 15.9602 31.1491 16.4844 31.7969 16.4844H32.9688V18.8281H35.3125V16.4844H36.4844C37.1321 16.4844 37.6562 15.9602 37.6562 15.3125C37.6562 14.6648 37.1321 14.1406 36.4844 14.1406Z"/><path d="M37.6562 21.1719H8.20312C6.91109 21.1719 5.85938 20.1202 5.85938 18.8281V17.6562C5.85938 17.0085 5.33523 16.4844 4.6875 16.4844H2.34375C1.69602 16.4844 1.17188 17.0085 1.17188 17.6562V18.8281C1.17188 22.7054 4.32586 25.8594 8.20312 25.8594H12.0859C13.2038 32.5077 18.9713 37.5781 25.9375 37.5781C33.7041 37.5781 40 31.2822 40 23.5156C40 22.2212 38.9507 21.1719 37.6562 21.1719Z"/><path d="M27.1094 14.1406H25.9375V9.23727C27.2986 8.75187 28.2812 7.46328 28.2812 5.9375C28.2812 3.99891 26.7042 2.42188 24.7656 2.42188C22.827 2.42188 21.25 3.99891 21.25 5.9375C21.25 7.46328 22.2327 8.75187 23.5938 9.23727V14.1406H22.4219C21.7741 14.1406 21.25 14.6648 21.25 15.3125C21.25 15.9602 21.7741 16.4844 22.4219 16.4844H23.5938V18.8281H25.9375V16.4844H27.1094C27.7571 16.4844 28.2812 15.9602 28.2812 15.3125C28.2812 14.6648 27.7571 14.1406 27.1094 14.1406Z"/><path d="M17.7344 14.1406H16.5625V9.23727C17.9236 8.75187 18.9062 7.46328 18.9062 5.9375C18.9062 3.99891 17.3292 2.42188 15.3906 2.42188C13.452 2.42188 11.875 3.99891 11.875 5.9375C11.875 7.46328 12.8577 8.75187 14.2188 9.23727V14.1406H13.0469C12.3991 14.1406 11.875 14.6648 11.875 15.3125C11.875 15.9602 12.3991 16.4844 13.0469 16.4844H14.2188V18.8281H16.5625V16.4844H17.7344C18.3821 16.4844 18.9062 15.9602 18.9062 15.3125C18.9062 14.6648 18.3821 14.1406 17.7344 14.1406Z"/></symbol><symbol viewBox="0 0 24 24" id="icon-book"><g clip-path="url(#afclip0_884_18661)"><path d="M3 18.5V5C3 4.20435 3.31607 3.44129 3.87868 2.87868C4.44129 2.31607 5.20435 2 6 2H20C20.2652 2 20.5196 2.10536 20.7071 2.29289C20.8946 2.48043 21 2.73478 21 3V21C21 21.2652 20.8946 21.5196 20.7071 21.7071C20.5196 21.8946 20.2652 22 20 22H6.5C5.57174 22 4.6815 21.6313 4.02513 20.9749C3.36875 20.3185 3 19.4283 3 18.5ZM19 20V17H6.5C6.10218 17 5.72064 17.158 5.43934 17.4393C5.15804 17.7206 5 18.1022 5 18.5C5 18.8978 5.15804 19.2794 5.43934 19.5607C5.72064 19.842 6.10218 20 6.5 20H19ZM5 15.337C5.46869 15.1144 5.98115 14.9993 6.5 15H19V4H6C5.73478 4 5.48043 4.10536 5.29289 4.29289C5.10536 4.48043 5 4.73478 5 5V15.337Z"/></g><defs><clipPath id="afclip0_884_18661"><rect width="24" height="24"/></clipPath></defs></symbol><symbol viewBox="0 0 24 24" id="icon-book--hover"><g clip-path="url(#aeclip0_884_18664)"><path d="M20 22H6.5C5.57174 22 4.6815 21.6313 4.02513 20.9749C3.36875 20.3185 3 19.4283 3 18.5V5C3 4.20435 3.31607 3.44129 3.87868 2.87868C4.44129 2.31607 5.20435 2 6 2H20C20.2652 2 20.5196 2.10536 20.7071 2.29289C20.8946 2.48043 21 2.73478 21 3V21C21 21.2652 20.8946 21.5196 20.7071 21.7071C20.5196 21.8946 20.2652 22 20 22ZM19 20V17H6.5C6.10218 17 5.72064 17.158 5.43934 17.4393C5.15804 17.7206 5 18.1022 5 18.5C5 18.8978 5.15804 19.2794 5.43934 19.5607C5.72064 19.842 6.10218 20 6.5 20H19Z"/></g><defs><clipPath id="aeclip0_884_18664"><rect width="24" height="24"/></clipPath></defs></symbol><symbol viewBox="0 0 24 24" id="icon-camera"><g clip-path="url(#ahclip0_884_18922)"><path d="M16 4C16.2652 4 16.5196 4.10536 16.7071 4.29289C16.8946 4.48043 17 4.73478 17 5V9.2L22.213 5.55C22.288 5.49746 22.3759 5.4665 22.4672 5.4605C22.5586 5.4545 22.6498 5.4737 22.731 5.51599C22.8122 5.55829 22.8802 5.62206 22.9276 5.70035C22.9751 5.77865 23.0001 5.86846 23 5.96V18.04C23.0001 18.1315 22.9751 18.2214 22.9276 18.2996C22.8802 18.3779 22.8122 18.4417 22.731 18.484C22.6498 18.5263 22.5586 18.5455 22.4672 18.5395C22.3759 18.5335 22.288 18.5025 22.213 18.45L17 14.8V19C17 19.2652 16.8946 19.5196 16.7071 19.7071C16.5196 19.8946 16.2652 20 16 20H2C1.73478 20 1.48043 19.8946 1.29289 19.7071C1.10536 19.5196 1 19.2652 1 19V5C1 4.73478 1.10536 4.48043 1.29289 4.29289C1.48043 4.10536 1.73478 4 2 4H16ZM15 6H3V18H15V6ZM7.4 8.829C7.47611 8.82879 7.55069 8.8503 7.615 8.891L11.97 11.663C12.0266 11.6992 12.0731 11.749 12.1054 11.8079C12.1376 11.8668 12.1545 11.9329 12.1545 12C12.1545 12.0671 12.1376 12.1332 12.1054 12.1921C12.0731 12.251 12.0266 12.3008 11.97 12.337L7.615 15.11C7.55434 15.1487 7.48438 15.1703 7.41248 15.1725C7.34059 15.1748 7.26941 15.1576 7.20646 15.1228C7.14351 15.088 7.0911 15.0368 7.05477 14.9747C7.01844 14.9127 6.99951 14.8419 7 14.77V9.23C7 9.009 7.18 8.83 7.4 8.83V8.829ZM21 8.84L17 11.64V12.358L21 15.158V8.84Z"/></g><defs><clipPath id="ahclip0_884_18922"><rect width="24" height="24"/></clipPath></defs></symbol><symbol viewBox="0 0 24 24" id="icon-camera--hover"><g clip-path="url(#agclip0_884_18924)"><path d="M16 4C16.2652 4 16.5196 4.10536 16.7071 4.29289C16.8946 4.48043 17 4.73478 17 5V9.2L22.213 5.55C22.288 5.49746 22.3759 5.4665 22.4672 5.4605C22.5586 5.4545 22.6498 5.4737 22.731 5.51599C22.8122 5.55829 22.8802 5.62206 22.9276 5.70035C22.9751 5.77865 23.0001 5.86846 23 5.96V18.04C23.0001 18.1315 22.9751 18.2214 22.9276 18.2996C22.8802 18.3779 22.8122 18.4417 22.731 18.484C22.6498 18.5263 22.5586 18.5455 22.4672 18.5395C22.3759 18.5335 22.288 18.5025 22.213 18.45L17 14.8V19C17 19.2652 16.8946 19.5196 16.7071 19.7071C16.5196 19.8946 16.2652 20 16 20H2C1.73478 20 1.48043 19.8946 1.29289 19.7071C1.10536 19.5196 1 19.2652 1 19V5C1 4.73478 1.10536 4.48043 1.29289 4.29289C1.48043 4.10536 1.73478 4 2 4H16ZM7.4 8.829C7.30779 8.82898 7.2184 8.86082 7.14697 8.91914C7.07553 8.97745 7.02644 9.05865 7.008 9.149L7 9.228V14.77C6.99999 14.8348 7.01572 14.8986 7.04582 14.9559C7.07592 15.0133 7.11951 15.0625 7.17282 15.0993C7.22614 15.1361 7.28759 15.1594 7.3519 15.1672C7.4162 15.1749 7.48144 15.167 7.542 15.144L7.615 15.108L11.97 12.336C12.0208 12.3035 12.0636 12.2599 12.0952 12.2085C12.1268 12.1571 12.1464 12.0993 12.1524 12.0392C12.1585 11.9792 12.1509 11.9186 12.1302 11.8619C12.1095 11.8053 12.0763 11.754 12.033 11.712L11.97 11.662L7.615 8.89C7.55048 8.85 7.47591 8.82919 7.4 8.83V8.829Z"/></g><defs><clipPath id="agclip0_884_18924"><rect width="24" height="24"/></clipPath></defs></symbol><symbol viewBox="0 0 24 24" id="icon-chat"><g clip-path="url(#ajclip0_884_18654)"><path d="M10 3H14C16.1217 3 18.1566 3.84285 19.6569 5.34315C21.1571 6.84344 22 8.87827 22 11C22 13.1217 21.1571 15.1566 19.6569 16.6569C18.1566 18.1571 16.1217 19 14 19V22.5C9 20.5 2 17.5 2 11C2 8.87827 2.84285 6.84344 4.34315 5.34315C5.84344 3.84285 7.87827 3 10 3ZM12 17H14C14.7879 17 15.5681 16.8448 16.2961 16.5433C17.0241 16.2417 17.6855 15.7998 18.2426 15.2426C18.7998 14.6855 19.2417 14.0241 19.5433 13.2961C19.8448 12.5681 20 11.7879 20 11C20 10.2121 19.8448 9.43185 19.5433 8.7039C19.2417 7.97595 18.7998 7.31451 18.2426 6.75736C17.6855 6.20021 17.0241 5.75825 16.2961 5.45672C15.5681 5.15519 14.7879 5 14 5H10C8.4087 5 6.88258 5.63214 5.75736 6.75736C4.63214 7.88258 4 9.4087 4 11C4 14.61 6.462 16.966 12 19.48V17Z"/></g><defs><clipPath id="ajclip0_884_18654"><rect width="24" height="24"/></clipPath></defs></symbol><symbol viewBox="0 0 24 24" id="icon-chat--hover"><g clip-path="url(#aiclip0_884_18657)"><path d="M10 3H14C16.1217 3 18.1566 3.84285 19.6569 5.34315C21.1571 6.84344 22 8.87827 22 11C22 13.1217 21.1571 15.1566 19.6569 16.6569C18.1566 18.1571 16.1217 19 14 19V22.5C9 20.5 2 17.5 2 11C2 8.87827 2.84285 6.84344 4.34315 5.34315C5.84344 3.84285 7.87827 3 10 3Z"/></g><defs><clipPath id="aiclip0_884_18657"><rect width="24" height="24"/></clipPath></defs></symbol><symbol viewBox="0 0 24 24" id="icon-check"><g clip-path="url(#akclip0_884_18397)"><path d="M10.0002 15.1715L19.1922 5.97852L20.6072 7.39252L10.0002 17.9995L3.63623 11.6355L5.05023 10.2215L10.0002 15.1715Z"/></g><defs><clipPath id="akclip0_884_18397"><rect width="24" height="24"/></clipPath></defs></symbol><symbol viewBox="0 0 24 24" id="icon-clock"><g clip-path="url(#amclip0_884_18682)"><path d="M12 22C6.477 22 2 17.523 2 12C2 6.477 6.477 2 12 2C17.523 2 22 6.477 22 12C22 17.523 17.523 22 12 22ZM12 20C14.1217 20 16.1566 19.1571 17.6569 17.6569C19.1571 16.1566 20 14.1217 20 12C20 9.87827 19.1571 7.84344 17.6569 6.34315C16.1566 4.84285 14.1217 4 12 4C9.87827 4 7.84344 4.84285 6.34315 6.34315C4.84285 7.84344 4 9.87827 4 12C4 14.1217 4.84285 16.1566 6.34315 17.6569C7.84344 19.1571 9.87827 20 12 20ZM13 12H17V14H11V7H13V12Z"/></g><defs><clipPath id="amclip0_884_18682"><rect width="24" height="24"/></clipPath></defs></symbol><symbol viewBox="0 0 24 24" id="icon-clock--hover"><g clip-path="url(#alclip0_884_18685)"><path d="M12 22C6.477 22 2 17.523 2 12C2 6.477 6.477 2 12 2C17.523 2 22 6.477 22 12C22 17.523 17.523 22 12 22ZM13 12V7H11V14H17V12H13Z"/></g><defs><clipPath id="alclip0_884_18685"><rect width="24" height="24"/></clipPath></defs></symbol><symbol viewBox="0 0 24 24" id="icon-close"><g clip-path="url(#anclip0_884_18394)"><path d="M12.0002 10.5857L16.9502 5.63574L18.3642 7.04974L13.4142 11.9997L18.3642 16.9497L16.9502 18.3637L12.0002 13.4137L7.05023 18.3637L5.63623 16.9497L10.5862 11.9997L5.63623 7.04974L7.05023 5.63574L12.0002 10.5857Z"/></g><defs><clipPath id="anclip0_884_18394"><rect width="24" height="24"/></clipPath></defs></symbol><symbol viewBox="0 0 24 24" id="icon-delete"><g clip-path="url(#apclip0_884_18485)"><path d="M17 6H22V8H20V21C20 21.2652 19.8946 21.5196 19.7071 21.7071C19.5196 21.8946 19.2652 22 19 22H5C4.73478 22 4.48043 21.8946 4.29289 21.7071C4.10536 21.5196 4 21.2652 4 21V8H2V6H7V3C7 2.73478 7.10536 2.48043 7.29289 2.29289C7.48043 2.10536 7.73478 2 8 2H16C16.2652 2 16.5196 2.10536 16.7071 2.29289C16.8946 2.48043 17 2.73478 17 3V6ZM18 8H6V20H18V8ZM13.414 14L15.182 15.768L13.768 17.182L12 15.414L10.232 17.182L8.818 15.768L10.586 14L8.818 12.232L10.232 10.818L12 12.586L13.768 10.818L15.182 12.232L13.414 14ZM9 4V6H15V4H9Z"/></g><defs><clipPath id="apclip0_884_18485"><rect width="24" height="24"/></clipPath></defs></symbol><symbol viewBox="0 0 24 24" id="icon-delete--hover"><g clip-path="url(#aoclip0_884_18488)"><path d="M7 6V3C7 2.73478 7.10536 2.48043 7.29289 2.29289C7.48043 2.10536 7.73478 2 8 2H16C16.2652 2 16.5196 2.10536 16.7071 2.29289C16.8946 2.48043 17 2.73478 17 3V6H22V8H20V21C20 21.2652 19.8946 21.5196 19.7071 21.7071C19.5196 21.8946 19.2652 22 19 22H5C4.73478 22 4.48043 21.8946 4.29289 21.7071C4.10536 21.5196 4 21.2652 4 21V8H2V6H7ZM13.414 14L15.182 12.232L13.768 10.818L12 12.586L10.232 10.818L8.818 12.232L10.586 14L8.818 15.768L10.232 17.182L12 15.414L13.768 17.182L15.182 15.768L13.414 14ZM9 4V6H15V4H9Z"/></g><defs><clipPath id="aoclip0_884_18488"><rect width="24" height="24"/></clipPath></defs></symbol><symbol viewBox="0 0 40 40" id="icon-dj-mixer"><path d="M36.4844 6.52637H3.51562C1.57711 6.52637 0 8.10348 0 10.042V29.9571C0 31.8956 1.57711 33.4727 3.51562 33.4727H36.4844C38.4229 33.4727 40 31.8956 40 29.9571V10.042C40 8.10348 38.4229 6.52637 36.4844 6.52637ZM13.4672 28.9458C8.53422 28.9458 4.52094 24.9325 4.52094 19.9996C4.52094 15.0666 8.53422 11.0533 13.4672 11.0533C18.4002 11.0533 22.4134 15.0666 22.4134 19.9996C22.4134 24.9325 18.4002 28.9458 13.4672 28.9458ZM26.9423 16.6661V26.6204C26.9423 27.2675 26.4176 27.7922 25.7704 27.7922C25.1232 27.7922 24.5985 27.2675 24.5985 26.6204V16.6661C24.1775 16.4883 23.882 16.0717 23.882 15.586C23.882 15.1003 24.1775 14.6836 24.5985 14.5059V13.6377C24.5985 12.9905 25.1232 12.4658 25.7704 12.4658C26.4176 12.4658 26.9423 12.9905 26.9423 13.6377V14.5059C27.3634 14.6836 27.6589 15.1003 27.6589 15.586C27.6589 16.0717 27.3634 16.4883 26.9423 16.6661ZM31.197 25.1809V26.6203C31.197 27.2675 30.6723 27.7922 30.0252 27.7922C29.378 27.7922 28.8533 27.2675 28.8533 26.6203V25.1809C28.4323 25.0032 28.1366 24.5866 28.1366 24.1008C28.1366 23.6151 28.4322 23.1984 28.8533 23.0207V13.6377C28.8533 12.9905 29.378 12.4658 30.0252 12.4658C30.6723 12.4658 31.197 12.9905 31.197 13.6377V23.0208C31.6181 23.1986 31.9137 23.6152 31.9137 24.1009C31.9137 24.5866 31.6181 25.0032 31.197 25.1809ZM35.4518 16.6661V26.6204C35.4518 27.2675 34.9271 27.7922 34.2799 27.7922C33.6327 27.7922 33.108 27.2675 33.108 26.6204V16.6661C32.687 16.4884 32.3914 16.0717 32.3914 15.586C32.3914 15.1003 32.687 14.6836 33.108 14.5059V13.6377C33.108 12.9905 33.6327 12.4658 34.2799 12.4658C34.9271 12.4658 35.4518 12.9905 35.4518 13.6377V14.5059C35.8729 14.6836 36.1684 15.1003 36.1684 15.586C36.1684 16.0717 35.8729 16.4883 35.4518 16.6661Z"/><path d="M13.4677 16.6182C11.6027 16.6182 10.0854 18.1354 10.0854 20.0004C10.0854 21.8654 11.6027 23.3827 13.4677 23.3827C15.3327 23.3827 16.85 21.8654 16.85 20.0004C16.85 18.1354 15.3327 16.6182 13.4677 16.6182ZM13.4677 21.0389C12.8951 21.0389 12.4292 20.5731 12.4292 20.0004C12.4292 19.4278 12.8951 18.9619 13.4677 18.9619C14.0404 18.9619 14.5062 19.4278 14.5062 20.0004C14.5062 20.5731 14.0404 21.0389 13.4677 21.0389Z"/></symbol><symbol viewBox="0 0 24 24" id="icon-double-left"><g clip-path="url(#arclip0_884_18597)"><path d="M4.583 17.3212C3.553 16.2272 3 15.0002 3 13.0112C3 9.51124 5.457 6.37424 9.03 4.82324L9.923 6.20124C6.588 8.00524 5.936 10.3462 5.676 11.8222C6.213 11.5442 6.916 11.4472 7.605 11.5112C9.409 11.6782 10.831 13.1592 10.831 15.0002C10.831 15.9285 10.4623 16.8187 9.80587 17.4751C9.1495 18.1315 8.25926 18.5002 7.331 18.5002C6.258 18.5002 5.232 18.0102 4.583 17.3212ZM14.583 17.3212C13.553 16.2272 13 15.0002 13 13.0112C13 9.51124 15.457 6.37424 19.03 4.82324L19.923 6.20124C16.588 8.00524 15.936 10.3462 15.676 11.8222C16.213 11.5442 16.916 11.4472 17.605 11.5112C19.409 11.6782 20.831 13.1592 20.831 15.0002C20.831 15.9285 20.4623 16.8187 19.8059 17.4751C19.1495 18.1315 18.2593 18.5002 17.331 18.5002C16.258 18.5002 15.232 18.0102 14.583 17.3212Z"/></g><defs><clipPath id="arclip0_884_18597"><rect width="24" height="24"/></clipPath></defs></symbol><symbol viewBox="0 0 24 24" id="icon-double-right"><g clip-path="url(#asclip0_884_18608)"><path d="M19.2481 6.002C20.2781 7.096 20.8311 8.323 20.8311 10.312C20.8311 13.812 18.3741 16.949 14.8011 18.5L13.9081 17.122C17.2431 15.318 17.8951 12.977 18.1551 11.501C17.6181 11.779 16.9151 11.876 16.2261 11.812C14.4221 11.645 13.0001 10.164 13.0001 8.323C13.0001 7.39474 13.3688 6.5045 14.0252 5.84813C14.6816 5.19175 15.5718 4.823 16.5001 4.823C17.5731 4.823 18.5991 5.313 19.2481 6.002ZM9.24805 6.002C10.2781 7.096 10.8311 8.323 10.8311 10.312C10.8311 13.812 8.37405 16.949 4.80105 18.5L3.90805 17.122C7.24305 15.318 7.89505 12.977 8.15505 11.501C7.61805 11.779 6.91505 11.876 6.22605 11.812C4.42205 11.645 3.00005 10.164 3.00005 8.323C3.00005 7.39474 3.3688 6.5045 4.02518 5.84813C4.68156 5.19175 5.5718 4.823 6.50005 4.823C7.57305 4.823 8.59905 5.313 9.24805 6.002Z"/></g><defs><clipPath id="asclip0_884_18608"><rect width="24" height="24"/></clipPath></defs></symbol><symbol viewBox="0 0 24 24" id="icon-edit"><g clip-path="url(#auclip0_884_18696)"><path d="M15.728 9.68608L14.314 8.27208L5 17.5861V19.0001H6.414L15.728 9.68608ZM17.142 8.27208L18.556 6.85808L17.142 5.44408L15.728 6.85808L17.142 8.27208ZM7.242 21.0001H3V16.7571L16.435 3.32208C16.6225 3.13461 16.8768 3.0293 17.142 3.0293C17.4072 3.0293 17.6615 3.13461 17.849 3.32208L20.678 6.15108C20.8655 6.33861 20.9708 6.59292 20.9708 6.85808C20.9708 7.12325 20.8655 7.37756 20.678 7.56508L7.243 21.0001H7.242Z"/></g><defs><clipPath id="auclip0_884_18696"><rect width="24" height="24"/></clipPath></defs></symbol><symbol viewBox="0 0 24 24" id="icon-edit--hover"><g clip-path="url(#atclip0_884_18699)"><path d="M12.9 6.85808L17.142 11.1011L7.242 21.0001H3V16.7571L12.9 6.85708V6.85808ZM14.314 5.44408L16.435 3.32208C16.6225 3.13461 16.8768 3.0293 17.142 3.0293C17.4072 3.0293 17.6615 3.13461 17.849 3.32208L20.678 6.15108C20.8655 6.33861 20.9708 6.59292 20.9708 6.85808C20.9708 7.12325 20.8655 7.37756 20.678 7.56508L18.556 9.68608L14.314 5.44408Z"/></g><defs><clipPath id="atclip0_884_18699"><rect width="24" height="24"/></clipPath></defs></symbol><symbol viewBox="0 0 24 24" id="icon-email"><g clip-path="url(#awclip0_884_18420)"><path d="M3 3H21C21.2652 3 21.5196 3.10536 21.7071 3.29289C21.8946 3.48043 22 3.73478 22 4V20C22 20.2652 21.8946 20.5196 21.7071 20.7071C21.5196 20.8946 21.2652 21 21 21H3C2.73478 21 2.48043 20.8946 2.29289 20.7071C2.10536 20.5196 2 20.2652 2 20V4C2 3.73478 2.10536 3.48043 2.29289 3.29289C2.48043 3.10536 2.73478 3 3 3ZM20 7.238L12.072 14.338L4 7.216V19H20V7.238ZM4.511 5L12.061 11.662L19.502 5H4.511Z"/></g><defs><clipPath id="awclip0_884_18420"><rect width="24" height="24"/></clipPath></defs></symbol><symbol viewBox="0 0 24 24" id="icon-email--hover"><g clip-path="url(#avclip0_884_18417)"><path d="M3 3H21C21.2652 3 21.5196 3.10536 21.7071 3.29289C21.8946 3.48043 22 3.73478 22 4V20C22 20.2652 21.8946 20.5196 21.7071 20.7071C21.5196 20.8946 21.2652 21 21 21H3C2.73478 21 2.48043 20.8946 2.29289 20.7071C2.10536 20.5196 2 20.2652 2 20V4C2 3.73478 2.10536 3.48043 2.29289 3.29289C2.48043 3.10536 2.73478 3 3 3ZM12.06 11.683L5.648 6.238L4.353 7.762L12.073 14.317L19.654 7.757L18.346 6.244L12.061 11.683H12.06Z"/></g><defs><clipPath id="avclip0_884_18417"><rect width="24" height="24"/></clipPath></defs></symbol><symbol viewBox="0 0 24 24" id="icon-equalizer"><g clip-path="url(#ayclip0_884_18441)"><path d="M6.17 17.9995C6.3766 17.414 6.75974 16.907 7.2666 16.5483C7.77346 16.1897 8.37909 15.9971 9 15.9971C9.62091 15.9971 10.2265 16.1897 10.7334 16.5483C11.2403 16.907 11.6234 17.414 11.83 17.9995H22V19.9995H11.83C11.6234 20.5851 11.2403 21.0921 10.7334 21.4507C10.2265 21.8094 9.62091 22.002 9 22.002C8.37909 22.002 7.77346 21.8094 7.2666 21.4507C6.75974 21.0921 6.3766 20.5851 6.17 19.9995H2V17.9995H6.17ZM12.17 10.9995C12.3766 10.414 12.7597 9.90695 13.2666 9.54831C13.7735 9.18967 14.3791 8.99707 15 8.99707C15.6209 8.99707 16.2265 9.18967 16.7334 9.54831C17.2403 9.90695 17.6234 10.414 17.83 10.9995H22V12.9995H17.83C17.6234 13.5851 17.2403 14.0921 16.7334 14.4507C16.2265 14.8094 15.6209 15.002 15 15.002C14.3791 15.002 13.7735 14.8094 13.2666 14.4507C12.7597 14.0921 12.3766 13.5851 12.17 12.9995H2V10.9995H12.17ZM6.17 3.99952C6.3766 3.41399 6.75974 2.90695 7.2666 2.54831C7.77346 2.18967 8.37909 1.99707 9 1.99707C9.62091 1.99707 10.2265 2.18967 10.7334 2.54831C11.2403 2.90695 11.6234 3.41399 11.83 3.99952H22V5.99952H11.83C11.6234 6.58505 11.2403 7.09209 10.7334 7.45073C10.2265 7.80938 9.62091 8.00197 9 8.00197C8.37909 8.00197 7.77346 7.80938 7.2666 7.45073C6.75974 7.09209 6.3766 6.58505 6.17 5.99952H2V3.99952H6.17ZM9 5.99952C9.26522 5.99952 9.51957 5.89416 9.70711 5.70663C9.89464 5.51909 10 5.26474 10 4.99952C10 4.7343 9.89464 4.47995 9.70711 4.29241C9.51957 4.10488 9.26522 3.99952 9 3.99952C8.73478 3.99952 8.48043 4.10488 8.29289 4.29241C8.10536 4.47995 8 4.7343 8 4.99952C8 5.26474 8.10536 5.51909 8.29289 5.70663C8.48043 5.89416 8.73478 5.99952 9 5.99952ZM15 12.9995C15.2652 12.9995 15.5196 12.8942 15.7071 12.7066C15.8946 12.5191 16 12.2647 16 11.9995C16 11.7343 15.8946 11.48 15.7071 11.2924C15.5196 11.1049 15.2652 10.9995 15 10.9995C14.7348 10.9995 14.4804 11.1049 14.2929 11.2924C14.1054 11.48 14 11.7343 14 11.9995C14 12.2647 14.1054 12.5191 14.2929 12.7066C14.4804 12.8942 14.7348 12.9995 15 12.9995ZM9 19.9995C9.26522 19.9995 9.51957 19.8942 9.70711 19.7066C9.89464 19.5191 10 19.2647 10 18.9995C10 18.7343 9.89464 18.4799 9.70711 18.2924C9.51957 18.1049 9.26522 17.9995 9 17.9995C8.73478 17.9995 8.48043 18.1049 8.29289 18.2924C8.10536 18.4799 8 18.7343 8 18.9995C8 19.2647 8.10536 19.5191 8.29289 19.7066C8.48043 19.8942 8.73478 19.9995 9 19.9995Z"/></g><defs><clipPath id="ayclip0_884_18441"><rect width="24" height="24"/></clipPath></defs></symbol><symbol viewBox="0 0 24 24" id="icon-equalizer--hover"><g clip-path="url(#axclip0_884_18444)"><path d="M6.17 17.9995C6.3766 17.414 6.75974 16.907 7.2666 16.5483C7.77346 16.1897 8.37909 15.9971 9 15.9971C9.62091 15.9971 10.2265 16.1897 10.7334 16.5483C11.2403 16.907 11.6234 17.414 11.83 17.9995H22V19.9995H11.83C11.6234 20.5851 11.2403 21.0921 10.7334 21.4507C10.2265 21.8094 9.62091 22.002 9 22.002C8.37909 22.002 7.77346 21.8094 7.2666 21.4507C6.75974 21.0921 6.3766 20.5851 6.17 19.9995H2V17.9995H6.17ZM12.17 10.9995C12.3766 10.414 12.7597 9.90695 13.2666 9.54831C13.7735 9.18967 14.3791 8.99707 15 8.99707C15.6209 8.99707 16.2265 9.18967 16.7334 9.54831C17.2403 9.90695 17.6234 10.414 17.83 10.9995H22V12.9995H17.83C17.6234 13.5851 17.2403 14.0921 16.7334 14.4507C16.2265 14.8094 15.6209 15.002 15 15.002C14.3791 15.002 13.7735 14.8094 13.2666 14.4507C12.7597 14.0921 12.3766 13.5851 12.17 12.9995H2V10.9995H12.17ZM6.17 3.99952C6.3766 3.41399 6.75974 2.90695 7.2666 2.54831C7.77346 2.18967 8.37909 1.99707 9 1.99707C9.62091 1.99707 10.2265 2.18967 10.7334 2.54831C11.2403 2.90695 11.6234 3.41399 11.83 3.99952H22V5.99952H11.83C11.6234 6.58505 11.2403 7.09209 10.7334 7.45073C10.2265 7.80938 9.62091 8.00197 9 8.00197C8.37909 8.00197 7.77346 7.80938 7.2666 7.45073C6.75974 7.09209 6.3766 6.58505 6.17 5.99952H2V3.99952H6.17Z"/></g><defs><clipPath id="axclip0_884_18444"><rect width="24" height="24"/></clipPath></defs></symbol><symbol viewBox="0 0 24 24" id="icon-facebook"><g clip-path="url(#baclip0_884_18565)"><path d="M13 9H17.5L17 11H13V20H11V11H7V9H11V7.128C11 5.345 11.186 4.698 11.534 4.046C11.875 3.40181 12.4018 2.87501 13.046 2.534C13.698 2.186 14.345 2 16.128 2C16.65 2 17.108 2.05 17.5 2.15V4H16.128C14.804 4 14.401 4.078 13.99 4.298C13.686 4.46 13.46 4.686 13.298 4.99C13.078 5.401 13 5.804 13 7.128V9Z"/></g><defs><clipPath id="baclip0_884_18565"><rect width="24" height="24"/></clipPath></defs></symbol><symbol viewBox="0 0 24 24" id="icon-facebook--hover"><g clip-path="url(#azclip0_884_18562)"><path d="M14 13.5H16.5L17.5 9.5H14V7.5C14 6.47 14 5.5 16 5.5H17.5V2.14C17.174 2.097 15.943 2 14.643 2C11.928 2 10 3.657 10 6.7V9.5H7V13.5H10V22H14V13.5Z"/></g><defs><clipPath id="azclip0_884_18562"><rect width="24" height="24"/></clipPath></defs></symbol><symbol viewBox="0 0 24 24" id="icon-google"><g clip-path="url(#bcclip0_884_18586)"><path d="M12 11H20.533C20.577 11.385 20.6 11.78 20.6 12.184C20.6 14.918 19.62 17.22 17.922 18.784C16.437 20.155 14.404 20.959 11.98 20.959C10.8007 20.9595 9.63279 20.7276 8.54311 20.2766C7.45344 19.8256 6.46333 19.1642 5.62936 18.3303C4.7954 17.4965 4.13394 16.5064 3.68278 15.4168C3.23162 14.3272 2.99961 13.1593 3 11.98C2.99948 10.8006 3.23139 9.63262 3.68249 8.54288C4.13359 7.45314 4.79503 6.46298 5.62901 5.62901C6.46298 4.79503 7.45314 4.13359 8.54288 3.68249C9.63262 3.23139 10.8006 2.99948 11.98 3C14.4 3 16.433 3.89 17.988 5.339L16.526 6.8C15.368 5.681 13.803 5 12 5C11.0807 5 10.1705 5.18106 9.32122 5.53284C8.47194 5.88463 7.70026 6.40024 7.05025 7.05025C6.40024 7.70026 5.88463 8.47194 5.53284 9.32122C5.18106 10.1705 5 11.0807 5 12C5 12.9193 5.18106 13.8295 5.53284 14.6788C5.88463 15.5281 6.40024 16.2997 7.05025 16.9497C7.70026 17.5998 8.47194 18.1154 9.32122 18.4672C10.1705 18.8189 11.0807 19 12 19C15.526 19 18.144 16.392 18.577 13H12V11Z"/></g><defs><clipPath id="bcclip0_884_18586"><rect width="24" height="24"/></clipPath></defs></symbol><symbol viewBox="0 0 24 24" id="icon-google--hover"><g clip-path="url(#bbclip0_884_18583)"><path d="M3.064 7.51C3.89601 5.85324 5.17237 4.46051 6.75043 3.48747C8.32849 2.51443 10.1461 1.99942 12 2C14.695 2 16.959 2.99 18.69 4.605L15.823 7.473C14.786 6.482 13.468 5.977 12 5.977C9.395 5.977 7.19 7.737 6.405 10.1C6.205 10.7 6.091 11.34 6.091 12C6.091 12.66 6.205 13.3 6.405 13.9C7.191 16.264 9.395 18.023 12 18.023C13.345 18.023 14.49 17.668 15.386 17.068C15.9054 16.726 16.3501 16.2822 16.6932 15.7635C17.0363 15.2448 17.2706 14.6619 17.382 14.05H12V10.182H21.418C21.536 10.836 21.6 11.518 21.6 12.227C21.6 15.273 20.51 17.837 18.618 19.577C16.964 21.105 14.7 22 12 22C10.6866 22.0005 9.38604 21.7422 8.17254 21.2399C6.95905 20.7375 5.85645 20.0009 4.92776 19.0722C3.99907 18.1436 3.2625 17.041 2.76013 15.8275C2.25777 14.614 1.99948 13.3134 2 12C2 10.386 2.386 8.86 3.064 7.51Z"/></g><defs><clipPath id="bbclip0_884_18583"><rect width="24" height="24"/></clipPath></defs></symbol><symbol viewBox="0 0 40 40" id="icon-guitar"><g clip-path="url(#bdclip0_894_100)"><path d="M23.8838 12.7812L25.5209 11.1442L28.9022 14.5255L27.2651 16.1626L23.8838 12.7812Z"/><path d="M20.6094 16.0557L22.2465 14.4186L25.6278 17.7999L23.9907 19.437L20.6094 16.0557Z"/><path d="M29.4627 5.18964C29.2756 5.2787 29.1923 5.4976 29.2731 5.68792L29.2883 5.72378L29.681 6.99174C29.66 7.01065 29.639 7.02948 29.6186 7.04979L27.1626 9.50573L30.5445 12.8875L33.0005 10.4316C33.028 10.4041 33.0541 10.3759 33.079 10.3472L34.3484 10.7404C34.5302 10.7967 34.7291 10.7096 34.8109 10.5376C36.4045 7.1894 39.6355 5.63643 39.7769 5.56987C39.8714 5.52604 39.9452 5.4444 39.9793 5.34581C40.0134 5.24737 40.0058 5.1376 39.9586 5.04471L38.3318 1.84659C38.3134 1.81034 38.2894 1.77737 38.2605 1.74862C38.2318 1.71987 38.1988 1.69588 38.1627 1.67753L35.01 0.0738536L34.9831 0.0572911C34.9025 0.00760357 34.8067 -0.0105995 34.7133 0.00596295C34.5892 0.0279942 34.4836 0.1094 34.4306 0.223775C34.4151 0.257213 32.8436 3.58057 29.4627 5.18964Z"/><path d="M20.8807 30.2373C20.8371 29.5352 21.2891 28.908 21.9554 28.746C23.1296 28.4604 24.2018 27.8536 25.0561 26.9912C25.6635 26.378 26.136 25.6623 26.4607 24.864C26.6364 24.4322 26.5357 23.9379 26.207 23.6093C26.202 23.6043 26.1969 23.5993 26.1918 23.5944C25.8511 23.2659 25.3448 23.1779 24.9132 23.3721C23.7363 23.9015 22.1474 23.6119 20.7479 22.6839L22.3576 21.0742L18.9757 17.6924L17.9562 18.7119C17.7318 17.5912 17.932 16.5384 18.6134 15.857C18.8093 15.6611 19.0396 15.5004 19.2982 15.3792C19.7459 15.1694 20.0109 14.6984 19.9579 14.2067C19.9049 13.7151 19.5454 13.3114 19.0632 13.2019C16.8545 12.7002 14.5829 13.3463 12.9865 14.9302C12.1223 15.7877 11.5156 16.8639 11.2321 18.0425C11.0721 18.7079 10.4451 19.1604 9.74137 19.1183C7.06559 18.9582 4.45145 19.946 2.5691 21.8284C-0.856367 25.2539 -0.856367 30.8275 2.5691 34.2529L5.7473 37.431C9.17277 40.8565 14.7464 40.8565 18.1718 37.431C20.0601 35.5427 21.0474 32.9208 20.8807 30.2373ZM11.8378 30.6026L9.39762 28.1625C8.94551 27.7104 8.94551 26.9773 9.39762 26.5251C9.84973 26.073 10.5828 26.073 11.035 26.5251L13.4751 28.9653C13.9272 29.4174 13.9272 30.1504 13.4751 30.6026C13.0229 31.0547 12.2899 31.0547 11.8378 30.6026ZM15.498 26.9424L13.0579 24.5022C12.6057 24.0501 12.6057 23.3171 13.0579 22.8649C13.51 22.4128 14.243 22.4128 14.6952 22.8649L17.1354 25.305C17.5875 25.7572 17.5875 26.4902 17.1354 26.9424C16.6832 27.3945 15.9501 27.3945 15.498 26.9424Z"/></g><defs><clipPath id="bdclip0_894_100"><rect width="40" height="40"/></clipPath></defs></symbol><symbol viewBox="0 0 24 24" id="icon-heart"><g clip-path="url(#bfclip0_884_18492)"><path d="M12.001 4.52898C14.35 2.41998 17.98 2.48998 20.243 4.75698C22.505 7.02498 22.583 10.637 20.479 12.993L11.999 21.485L3.52101 12.993C1.41701 10.637 1.49601 7.01898 3.75701 4.75698C6.02201 2.49298 9.64501 2.41698 12.001 4.52898ZM18.827 6.16998C17.327 4.66798 14.907 4.60698 13.337 6.01698L12.002 7.21498L10.666 6.01798C9.09101 4.60598 6.67601 4.66798 5.17201 6.17198C3.68201 7.66198 3.60701 10.047 4.98001 11.623L12 18.654L19.02 11.624C20.394 10.047 20.319 7.66498 18.827 6.16998Z"/></g><defs><clipPath id="bfclip0_884_18492"><rect width="24" height="24"/></clipPath></defs></symbol><symbol viewBox="0 0 24 24" id="icon-heart--hover"><g clip-path="url(#beclip0_884_18495)"><path d="M12.001 4.52898C14.35 2.41998 17.98 2.48998 20.243 4.75698C22.505 7.02498 22.583 10.637 20.479 12.993L11.999 21.485L3.52101 12.993C1.41701 10.637 1.49601 7.01898 3.75701 4.75698C6.02201 2.49298 9.64501 2.41698 12.001 4.52898Z"/></g><defs><clipPath id="beclip0_884_18495"><rect width="24" height="24"/></clipPath></defs></symbol><symbol viewBox="0 0 24 24" id="icon-instagram"><g clip-path="url(#bhclip0_884_18593)"><path d="M12 9C11.2044 9 10.4413 9.31607 9.87868 9.87868C9.31607 10.4413 9 11.2044 9 12C9 12.7956 9.31607 13.5587 9.87868 14.1213C10.4413 14.6839 11.2044 15 12 15C12.7956 15 13.5587 14.6839 14.1213 14.1213C14.6839 13.5587 15 12.7956 15 12C15 11.2044 14.6839 10.4413 14.1213 9.87868C13.5587 9.31607 12.7956 9 12 9ZM12 7C13.3261 7 14.5979 7.52678 15.5355 8.46447C16.4732 9.40215 17 10.6739 17 12C17 13.3261 16.4732 14.5979 15.5355 15.5355C14.5979 16.4732 13.3261 17 12 17C10.6739 17 9.40215 16.4732 8.46447 15.5355C7.52678 14.5979 7 13.3261 7 12C7 10.6739 7.52678 9.40215 8.46447 8.46447C9.40215 7.52678 10.6739 7 12 7ZM18.5 6.75C18.5 7.08152 18.3683 7.39946 18.1339 7.63388C17.8995 7.8683 17.5815 8 17.25 8C16.9185 8 16.6005 7.8683 16.3661 7.63388C16.1317 7.39946 16 7.08152 16 6.75C16 6.41848 16.1317 6.10054 16.3661 5.86612C16.6005 5.6317 16.9185 5.5 17.25 5.5C17.5815 5.5 17.8995 5.6317 18.1339 5.86612C18.3683 6.10054 18.5 6.41848 18.5 6.75ZM12 4C9.526 4 9.122 4.007 7.971 4.058C7.187 4.095 6.661 4.2 6.173 4.39C5.739 4.558 5.426 4.759 5.093 5.093C4.78001 5.3954 4.53935 5.76458 4.389 6.173C4.199 6.663 4.094 7.188 4.058 7.971C4.006 9.075 4 9.461 4 12C4 14.474 4.007 14.878 4.058 16.029C4.095 16.812 4.2 17.339 4.389 17.826C4.559 18.261 4.759 18.574 5.091 18.906C5.428 19.242 5.741 19.443 6.171 19.609C6.665 19.8 7.191 19.906 7.971 19.942C9.075 19.994 9.461 20 12 20C14.474 20 14.878 19.993 16.029 19.942C16.811 19.905 17.338 19.8 17.826 19.611C18.259 19.442 18.574 19.241 18.906 18.909C19.243 18.572 19.444 18.259 19.61 17.829C19.8 17.336 19.906 16.809 19.942 16.029C19.994 14.925 20 14.539 20 12C20 9.526 19.993 9.122 19.942 7.971C19.905 7.189 19.8 6.661 19.61 6.173C19.4593 5.765 19.2191 5.39596 18.907 5.093C18.6047 4.77985 18.2355 4.53917 17.827 4.389C17.337 4.199 16.811 4.094 16.029 4.058C14.925 4.006 14.539 4 12 4ZM12 2C14.717 2 15.056 2.01 16.122 2.06C17.187 2.11 17.912 2.277 18.55 2.525C19.21 2.779 19.766 3.123 20.322 3.678C20.8305 4.1779 21.224 4.78259 21.475 5.45C21.722 6.087 21.89 6.813 21.94 7.878C21.987 8.944 22 9.283 22 12C22 14.717 21.99 15.056 21.94 16.122C21.89 17.187 21.722 17.912 21.475 18.55C21.2247 19.2178 20.8311 19.8226 20.322 20.322C19.822 20.8303 19.2173 21.2238 18.55 21.475C17.913 21.722 17.187 21.89 16.122 21.94C15.056 21.987 14.717 22 12 22C9.283 22 8.944 21.99 7.878 21.94C6.813 21.89 6.088 21.722 5.45 21.475C4.78233 21.2245 4.17753 20.8309 3.678 20.322C3.16941 19.8222 2.77593 19.2175 2.525 18.55C2.277 17.913 2.11 17.187 2.06 16.122C2.013 15.056 2 14.717 2 12C2 9.283 2.01 8.944 2.06 7.878C2.11 6.812 2.277 6.088 2.525 5.45C2.77524 4.78218 3.1688 4.17732 3.678 3.678C4.17767 3.16923 4.78243 2.77573 5.45 2.525C6.088 2.277 6.812 2.11 7.878 2.06C8.944 2.013 9.283 2 12 2Z"/></g><defs><clipPath id="bhclip0_884_18593"><rect width="24" height="24"/></clipPath></defs></symbol><symbol viewBox="0 0 24 24" id="icon-instagram--hover"><g clip-path="url(#bgclip0_884_18590)"><path d="M12 2C14.717 2 15.056 2.01 16.122 2.06C17.187 2.11 17.912 2.277 18.55 2.525C19.21 2.779 19.766 3.123 20.322 3.678C20.8305 4.1779 21.224 4.78259 21.475 5.45C21.722 6.087 21.89 6.813 21.94 7.878C21.987 8.944 22 9.283 22 12C22 14.717 21.99 15.056 21.94 16.122C21.89 17.187 21.722 17.912 21.475 18.55C21.2247 19.2178 20.8311 19.8226 20.322 20.322C19.822 20.8303 19.2173 21.2238 18.55 21.475C17.913 21.722 17.187 21.89 16.122 21.94C15.056 21.987 14.717 22 12 22C9.283 22 8.944 21.99 7.878 21.94C6.813 21.89 6.088 21.722 5.45 21.475C4.78233 21.2245 4.17753 20.8309 3.678 20.322C3.16941 19.8222 2.77593 19.2175 2.525 18.55C2.277 17.913 2.11 17.187 2.06 16.122C2.013 15.056 2 14.717 2 12C2 9.283 2.01 8.944 2.06 7.878C2.11 6.812 2.277 6.088 2.525 5.45C2.77524 4.78218 3.1688 4.17732 3.678 3.678C4.17767 3.16923 4.78243 2.77573 5.45 2.525C6.088 2.277 6.812 2.11 7.878 2.06C8.944 2.013 9.283 2 12 2ZM12 7C10.6739 7 9.40215 7.52678 8.46447 8.46447C7.52678 9.40215 7 10.6739 7 12C7 13.3261 7.52678 14.5979 8.46447 15.5355C9.40215 16.4732 10.6739 17 12 17C13.3261 17 14.5979 16.4732 15.5355 15.5355C16.4732 14.5979 17 13.3261 17 12C17 10.6739 16.4732 9.40215 15.5355 8.46447C14.5979 7.52678 13.3261 7 12 7ZM18.5 6.75C18.5 6.41848 18.3683 6.10054 18.1339 5.86612C17.8995 5.6317 17.5815 5.5 17.25 5.5C16.9185 5.5 16.6005 5.6317 16.3661 5.86612C16.1317 6.10054 16 6.41848 16 6.75C16 7.08152 16.1317 7.39946 16.3661 7.63388C16.6005 7.8683 16.9185 8 17.25 8C17.5815 8 17.8995 7.8683 18.1339 7.63388C18.3683 7.39946 18.5 7.08152 18.5 6.75ZM12 9C12.7956 9 13.5587 9.31607 14.1213 9.87868C14.6839 10.4413 15 11.2044 15 12C15 12.7956 14.6839 13.5587 14.1213 14.1213C13.5587 14.6839 12.7956 15 12 15C11.2044 15 10.4413 14.6839 9.87868 14.1213C9.31607 13.5587 9 12.7956 9 12C9 11.2044 9.31607 10.4413 9.87868 9.87868C10.4413 9.31607 11.2044 9 12 9Z"/></g><defs><clipPath id="bgclip0_884_18590"><rect width="24" height="24"/></clipPath></defs></symbol><symbol viewBox="0 0 24 24" id="icon-linkedin"><g clip-path="url(#bjclip0_884_18579)"><path d="M4 3H20C20.2652 3 20.5196 3.10536 20.7071 3.29289C20.8946 3.48043 21 3.73478 21 4V20C21 20.2652 20.8946 20.5196 20.7071 20.7071C20.5196 20.8946 20.2652 21 20 21H4C3.73478 21 3.48043 20.8946 3.29289 20.7071C3.10536 20.5196 3 20.2652 3 20V4C3 3.73478 3.10536 3.48043 3.29289 3.29289C3.48043 3.10536 3.73478 3 4 3ZM5 5V19H19V5H5ZM7.5 9C7.10218 9 6.72064 8.84196 6.43934 8.56066C6.15804 8.27936 6 7.89782 6 7.5C6 7.10218 6.15804 6.72064 6.43934 6.43934C6.72064 6.15804 7.10218 6 7.5 6C7.89782 6 8.27936 6.15804 8.56066 6.43934C8.84196 6.72064 9 7.10218 9 7.5C9 7.89782 8.84196 8.27936 8.56066 8.56066C8.27936 8.84196 7.89782 9 7.5 9ZM6.5 10H8.5V17.5H6.5V10ZM12 10.43C12.584 9.865 13.266 9.5 14 9.5C16.071 9.5 17.5 11.179 17.5 13.25V17.5H15.5V13.25C15.5 12.7859 15.3156 12.3408 14.9874 12.0126C14.6592 11.6844 14.2141 11.5 13.75 11.5C13.2859 11.5 12.8408 11.6844 12.5126 12.0126C12.1844 12.3408 12 12.7859 12 13.25V17.5H10V10H12V10.43Z"/></g><defs><clipPath id="bjclip0_884_18579"><rect width="24" height="24"/></clipPath></defs></symbol><symbol viewBox="0 0 24 24" id="icon-linkedin--hover"><g clip-path="url(#biclip0_884_18576)"><path d="M18.335 18.339H15.67V14.162C15.67 13.166 15.65 11.884 14.28 11.884C12.891 11.884 12.679 12.968 12.679 14.089V18.339H10.013V9.75H12.573V10.92H12.608C12.966 10.246 13.836 9.533 15.136 9.533C17.836 9.533 18.336 11.311 18.336 13.624V18.339H18.335ZM7.003 8.575C6.79956 8.57526 6.59806 8.53537 6.41006 8.45761C6.22207 8.37984 6.05127 8.26574 5.90746 8.12184C5.76365 7.97793 5.64965 7.80706 5.57201 7.61901C5.49437 7.43097 5.4546 7.22944 5.455 7.026C5.4552 6.71983 5.54618 6.4206 5.71644 6.16615C5.8867 5.91169 6.12859 5.71343 6.41153 5.59645C6.69447 5.47947 7.00574 5.44902 7.30598 5.50894C7.60622 5.56886 7.88196 5.71648 8.09831 5.93311C8.31466 6.14974 8.46191 6.42566 8.52145 6.72598C8.58099 7.0263 8.55013 7.33753 8.43278 7.62032C8.31543 7.9031 8.11687 8.14474 7.86219 8.31467C7.60751 8.4846 7.30817 8.5752 7.002 8.575H7.003ZM8.339 18.339H5.666V9.75H8.34V18.339H8.339ZM19.67 3H4.329C3.593 3 3 3.58 3 4.297V19.703C3 20.42 3.594 21 4.328 21H19.666C20.4 21 21 20.42 21 19.703V4.297C21 3.58 20.4 3 19.666 3H19.669H19.67Z"/></g><defs><clipPath id="biclip0_884_18576"><rect width="24" height="24"/></clipPath></defs></symbol><symbol viewBox="0 0 24 24" id="icon-map-pin"><g clip-path="url(#blclip0_884_18478)"><path d="M12 23.7279L5.636 17.3639C4.37734 16.1052 3.52019 14.5016 3.17293 12.7558C2.82567 11.0099 3.00391 9.20035 3.6851 7.55582C4.36629 5.91129 5.51984 4.50569 6.99988 3.51677C8.47992 2.52784 10.22 2 12 2C13.78 2 15.5201 2.52784 17.0001 3.51677C18.4802 4.50569 19.6337 5.91129 20.3149 7.55582C20.9961 9.20035 21.1743 11.0099 20.8271 12.7558C20.4798 14.5016 19.6227 16.1052 18.364 17.3639L12 23.7279ZM16.95 15.9499C17.9289 14.9709 18.5955 13.7236 18.8656 12.3658C19.1356 11.0079 18.9969 9.60052 18.4671 8.32148C17.9373 7.04244 17.04 5.94923 15.8889 5.18009C14.7378 4.41095 13.3844 4.00043 12 4.00043C10.6156 4.00043 9.26222 4.41095 8.11109 5.18009C6.95996 5.94923 6.06275 7.04244 5.53292 8.32148C5.00308 9.60052 4.86442 11.0079 5.13445 12.3658C5.40449 13.7236 6.07111 14.9709 7.05 15.9499L12 20.8999L16.95 15.9499ZM12 12.9999C11.4696 12.9999 10.9609 12.7892 10.5858 12.4141C10.2107 12.0391 10 11.5304 10 10.9999C10 10.4695 10.2107 9.96078 10.5858 9.58571C10.9609 9.21064 11.4696 8.99992 12 8.99992C12.5304 8.99992 13.0391 9.21064 13.4142 9.58571C13.7893 9.96078 14 10.4695 14 10.9999C14 11.5304 13.7893 12.0391 13.4142 12.4141C13.0391 12.7892 12.5304 12.9999 12 12.9999Z"/></g><defs><clipPath id="blclip0_884_18478"><rect width="24" height="24"/></clipPath></defs></symbol><symbol viewBox="0 0 24 24" id="icon-map-pin--hover"><g clip-path="url(#bkclip0_884_18481)"><path d="M18.364 17.3639L12 23.7279L5.636 17.3639C4.37734 16.1052 3.52019 14.5016 3.17293 12.7558C2.82567 11.0099 3.00391 9.20035 3.6851 7.55582C4.36629 5.91129 5.51984 4.50569 6.99988 3.51677C8.47992 2.52784 10.22 2 12 2C13.78 2 15.5201 2.52784 17.0001 3.51677C18.4802 4.50569 19.6337 5.91129 20.3149 7.55582C20.9961 9.20035 21.1743 11.0099 20.8271 12.7558C20.4798 14.5016 19.6227 16.1052 18.364 17.3639ZM12 12.9999C12.5304 12.9999 13.0391 12.7892 13.4142 12.4141C13.7893 12.0391 14 11.5304 14 10.9999C14 10.4695 13.7893 9.96078 13.4142 9.58571C13.0391 9.21064 12.5304 8.99992 12 8.99992C11.4696 8.99992 10.9609 9.21064 10.5858 9.58571C10.2107 9.96078 10 10.4695 10 10.9999C10 11.5304 10.2107 12.0391 10.5858 12.4141C10.9609 12.7892 11.4696 12.9999 12 12.9999Z"/></g><defs><clipPath id="bkclip0_884_18481"><rect width="24" height="24"/></clipPath></defs></symbol><symbol viewBox="0 0 24 24" id="icon-phone"><g clip-path="url(#bnclip0_884_18506)"><path d="M9.366 10.682C10.3043 12.3305 11.6695 13.6957 13.318 14.634L14.202 13.396C14.3442 13.1969 14.5543 13.0569 14.7928 13.0023C15.0313 12.9478 15.2814 12.9825 15.496 13.1C16.9103 13.8729 18.4722 14.3378 20.079 14.464C20.3298 14.4839 20.5638 14.5975 20.7345 14.7823C20.9052 14.9671 21 15.2094 21 15.461V19.923C21.0001 20.1706 20.9083 20.4094 20.7424 20.5932C20.5765 20.777 20.3483 20.8927 20.102 20.918C19.572 20.973 19.038 21 18.5 21C9.94 21 3 14.06 3 5.5C3 4.962 3.027 4.428 3.082 3.898C3.10725 3.6517 3.22298 3.42352 3.40679 3.25763C3.5906 3.09175 3.82941 2.99995 4.077 3H8.539C8.79056 2.99997 9.0329 3.09475 9.21768 3.26545C9.40247 3.43615 9.51613 3.67022 9.536 3.921C9.66222 5.52779 10.1271 7.08968 10.9 8.504C11.0175 8.71856 11.0522 8.96874 10.9977 9.2072C10.9431 9.44565 10.8031 9.65584 10.604 9.798L9.366 10.682ZM6.844 10.025L8.744 8.668C8.20478 7.50409 7.83535 6.26884 7.647 5H5.01C5.004 5.166 5.001 5.333 5.001 5.5C5 12.956 11.044 19 18.5 19C18.667 19 18.834 18.997 19 18.99V16.353C17.7312 16.1646 16.4959 15.7952 15.332 15.256L13.975 17.156C13.4287 16.9437 12.898 16.6931 12.387 16.406L12.329 16.373C10.3676 15.2567 8.74328 13.6324 7.627 11.671L7.594 11.613C7.30691 11.102 7.05628 10.5713 6.844 10.025Z"/></g><defs><clipPath id="bnclip0_884_18506"><rect width="24" height="24"/></clipPath></defs></symbol><symbol viewBox="0 0 24 24" id="icon-phone--hover"><g clip-path="url(#bmclip0_884_18509)"><path d="M21 16.42V19.956C21.0001 20.2092 20.9042 20.453 20.7316 20.6382C20.559 20.8234 20.3226 20.9363 20.07 20.954C19.633 20.984 19.276 21 19 21C10.163 21 3 13.837 3 5C3 4.724 3.015 4.367 3.046 3.93C3.06372 3.67744 3.17658 3.44101 3.3618 3.26841C3.54703 3.09581 3.79082 2.99989 4.044 3H7.58C7.70404 2.99987 7.8237 3.04586 7.91573 3.12902C8.00776 3.21218 8.0656 3.32658 8.078 3.45C8.101 3.68 8.122 3.863 8.142 4.002C8.34073 5.38892 8.748 6.73783 9.35 8.003C9.445 8.203 9.383 8.442 9.203 8.57L7.045 10.112C8.36445 13.1865 10.8145 15.6365 13.889 16.956L15.429 14.802C15.4919 14.714 15.5838 14.6509 15.6885 14.6237C15.7932 14.5964 15.9042 14.6068 16.002 14.653C17.267 15.2539 18.6156 15.6601 20.002 15.858C20.141 15.878 20.324 15.9 20.552 15.922C20.6752 15.9346 20.7894 15.9926 20.8724 16.0846C20.9553 16.1766 21.0012 16.2961 21.001 16.42H21Z"/></g><defs><clipPath id="bmclip0_884_18509"><rect width="24" height="24"/></clipPath></defs></symbol><symbol viewBox="0 0 24 24" id="icon-play"><g clip-path="url(#bpclip0_884_18710)"><path d="M12 22C6.477 22 2 17.523 2 12C2 6.477 6.477 2 12 2C17.523 2 22 6.477 22 12C22 17.523 17.523 22 12 22ZM12 20C14.1217 20 16.1566 19.1571 17.6569 17.6569C19.1571 16.1566 20 14.1217 20 12C20 9.87827 19.1571 7.84344 17.6569 6.34315C16.1566 4.84285 14.1217 4 12 4C9.87827 4 7.84344 4.84285 6.34315 6.34315C4.84285 7.84344 4 9.87827 4 12C4 14.1217 4.84285 16.1566 6.34315 17.6569C7.84344 19.1571 9.87827 20 12 20ZM10.622 8.415L15.501 11.667C15.5559 11.7035 15.6009 11.753 15.632 11.8111C15.6631 11.8692 15.6794 11.9341 15.6794 12C15.6794 12.0659 15.6631 12.1308 15.632 12.1889C15.6009 12.247 15.5559 12.2965 15.501 12.333L10.621 15.585C10.5608 15.6249 10.491 15.6477 10.4189 15.6512C10.3468 15.6546 10.2751 15.6384 10.2114 15.6043C10.1477 15.5703 10.0945 15.5197 10.0573 15.4578C10.02 15.396 10.0003 15.3252 10 15.253V8.747C10.0001 8.67465 10.0199 8.60369 10.0572 8.54168C10.0944 8.47967 10.1478 8.42893 10.2116 8.39486C10.2755 8.36079 10.3473 8.34467 10.4196 8.34822C10.4919 8.35177 10.5618 8.37485 10.622 8.415Z"/></g><defs><clipPath id="bpclip0_884_18710"><rect width="24" height="24"/></clipPath></defs></symbol><symbol viewBox="0 0 24 24" id="icon-play--hover"><g clip-path="url(#boclip0_884_18713)"><path d="M12 22C6.477 22 2 17.523 2 12C2 6.477 6.477 2 12 2C17.523 2 22 6.477 22 12C22 17.523 17.523 22 12 22ZM10.622 8.415C10.5618 8.37485 10.4919 8.35177 10.4196 8.34822C10.3473 8.34467 10.2755 8.36079 10.2116 8.39486C10.1478 8.42893 10.0944 8.47967 10.0572 8.54168C10.0199 8.60369 10.0001 8.67465 10 8.747V15.253C10.0001 15.3253 10.0199 15.3963 10.0572 15.4583C10.0944 15.5203 10.1478 15.5711 10.2116 15.6051C10.2755 15.6392 10.3473 15.6553 10.4196 15.6518C10.4919 15.6482 10.5618 15.6252 10.622 15.585L15.501 12.333C15.5559 12.2965 15.6009 12.247 15.632 12.1889C15.6631 12.1308 15.6794 12.0659 15.6794 12C15.6794 11.9341 15.6631 11.8692 15.632 11.8111C15.6009 11.753 15.5559 11.7035 15.501 11.667L10.621 8.415H10.622Z"/></g><defs><clipPath id="boclip0_884_18713"><rect width="24" height="24"/></clipPath></defs></symbol><symbol viewBox="0 0 40 40" id="icon-saxophone"><g clip-path="url(#bqclip0_894_101)"><path d="M37.6558 14.1406H25.8593C24.5648 14.1406 23.5156 15.1899 23.5156 16.4843C23.5156 17.7786 24.5649 18.828 25.8593 18.828H37.6558C38.9503 18.828 39.9995 17.7785 39.9995 16.4843C39.9995 15.1899 38.9503 14.1406 37.6558 14.1406Z"/><path d="M37.6557 21.1723H25.8591V24.5917C25.8591 26.5829 24.241 28.2034 22.2532 28.2034C20.5401 28.2034 19.0535 26.9857 18.7216 25.3333L14.9464 5.08444C14.2531 1.61578 10.7826 -0.731329 7.11657 0.208279C4.3529 0.918981 2.42236 3.52359 2.42236 6.54358V11.7977H1.17236C0.524628 11.7977 0.000488281 12.3218 0.000488281 12.9696C0.000488281 13.6173 0.524628 14.1415 1.17236 14.1415H3.59415H5.93782C6.58501 14.1415 7.10969 13.6168 7.10969 12.9696V8.20412C7.10969 7.55678 7.63438 7.03225 8.28157 7.03225C8.92875 7.03225 9.45344 7.55678 9.45344 8.20412V14.1415V16.4851H8.28157C7.63383 16.4851 7.10969 17.0093 7.10969 17.657C7.10969 18.3047 7.63383 18.8289 8.28157 18.8289H9.45344V21.1725H8.28157C7.63383 21.1725 7.10969 21.6967 7.10969 22.3444C7.10969 22.9921 7.63383 23.5163 8.28157 23.5163H9.45344V24.6882V25.86H8.28157C7.63383 25.86 7.10969 26.3842 7.10969 27.0319C7.10969 27.6796 7.63383 28.2038 8.28157 28.2038H9.6643C10.7823 34.8519 16.5496 40.0003 23.5155 40.0003H23.5361L23.947 39.9934C31.4632 39.7691 37.6558 33.1223 37.6558 25.2707L37.6557 21.1723Z"/></g><defs><clipPath id="bqclip0_894_101"><rect width="40" height="40"/></clipPath></defs></symbol><symbol viewBox="0 0 24 24" id="icon-search"><g clip-path="url(#brclip0_884_18376)"><path d="M18.031 16.617L22.314 20.899L20.899 22.314L16.617 18.031C15.0237 19.3082 13.042 20.0029 11 20C6.032 20 2 15.968 2 11C2 6.032 6.032 2 11 2C15.968 2 20 6.032 20 11C20.0029 13.042 19.3082 15.0237 18.031 16.617ZM16.025 15.875C17.2941 14.5699 18.0029 12.8204 18 11C18 7.132 14.867 4 11 4C7.132 4 4 7.132 4 11C4 14.867 7.132 18 11 18C12.8204 18.0029 14.5699 17.2941 15.875 16.025L16.025 15.875Z"/></g><defs><clipPath id="brclip0_884_18376"><rect width="24" height="24"/></clipPath></defs></symbol><symbol viewBox="0 0 24 24" id="icon-share"><g clip-path="url(#btclip0_884_18541)"><path d="M13.1202 17.0227L8.92121 14.7327C8.373 15.3188 7.66119 15.7264 6.87828 15.9026C6.09537 16.0788 5.27756 16.0154 4.53113 15.7208C3.7847 15.4261 3.14417 14.9137 2.69277 14.2502C2.24138 13.5867 2 12.8027 2 12.0002C2 11.1977 2.24138 10.4138 2.69277 9.75027C3.14417 9.08676 3.7847 8.57437 4.53113 8.27968C5.27756 7.98498 6.09537 7.92162 6.87828 8.09783C7.66119 8.27403 8.373 8.68165 8.92121 9.26771L13.1212 6.97772C12.8828 6.03379 12.9968 5.0353 13.4418 4.16942C13.8869 3.30353 14.6325 2.6297 15.5389 2.27422C16.4452 1.91874 17.4501 1.90602 18.3652 2.23845C19.2803 2.57088 20.0427 3.22563 20.5095 4.07998C20.9764 4.93432 21.1156 5.9296 20.9011 6.87926C20.6866 7.82892 20.1332 8.66775 19.3444 9.23852C18.5557 9.8093 17.5859 10.0728 16.6168 9.97971C15.6477 9.88659 14.7458 9.44323 14.0802 8.73272L9.88021 11.0227C10.0414 11.6641 10.0414 12.3354 9.88021 12.9767L14.0792 15.2667C14.7448 14.5562 15.6467 14.1128 16.6158 14.0197C17.5849 13.9266 18.5547 14.1901 19.3434 14.7609C20.1322 15.3317 20.6856 16.1705 20.9001 17.1202C21.1146 18.0698 20.9754 19.0651 20.5085 19.9195C20.0417 20.7738 19.2793 21.4286 18.3642 21.761C17.4491 22.0934 16.4442 22.0807 15.5379 21.7252C14.6315 21.3697 13.8859 20.6959 13.4408 19.83C12.9958 18.9641 12.8818 17.9656 13.1202 17.0217V17.0227ZM6.00021 13.9997C6.53064 13.9997 7.03935 13.789 7.41442 13.4139C7.78949 13.0389 8.00021 12.5301 8.00021 11.9997C8.00021 11.4693 7.78949 10.9606 7.41442 10.5855C7.03935 10.2104 6.53064 9.99971 6.00021 9.99971C5.46977 9.99971 4.96107 10.2104 4.58599 10.5855C4.21092 10.9606 4.00021 11.4693 4.00021 11.9997C4.00021 12.5301 4.21092 13.0389 4.58599 13.4139C4.96107 13.789 5.46977 13.9997 6.00021 13.9997ZM17.0002 7.99972C17.5306 7.99972 18.0393 7.789 18.4144 7.41393C18.7895 7.03886 19.0002 6.53015 19.0002 5.99972C19.0002 5.46928 18.7895 4.96057 18.4144 4.5855C18.0393 4.21043 17.5306 3.99972 17.0002 3.99972C16.4698 3.99972 15.9611 4.21043 15.586 4.5855C15.2109 4.96057 15.0002 5.46928 15.0002 5.99972C15.0002 6.53015 15.2109 7.03886 15.586 7.41393C15.9611 7.789 16.4698 7.99972 17.0002 7.99972ZM17.0002 19.9997C17.5306 19.9997 18.0393 19.789 18.4144 19.4139C18.7895 19.0389 19.0002 18.5301 19.0002 17.9997C19.0002 17.4693 18.7895 16.9606 18.4144 16.5855C18.0393 16.2104 17.5306 15.9997 17.0002 15.9997C16.4698 15.9997 15.9611 16.2104 15.586 16.5855C15.2109 16.9606 15.0002 17.4693 15.0002 17.9997C15.0002 18.5301 15.2109 19.0389 15.586 19.4139C15.9611 19.789 16.4698 19.9997 17.0002 19.9997Z"/></g><defs><clipPath id="btclip0_884_18541"><rect width="24" height="24"/></clipPath></defs></symbol><symbol viewBox="0 0 24 24" id="icon-share--hover"><g clip-path="url(#bsclip0_884_18544)"><path d="M13.5762 17.2706L8.4662 14.4836C7.97569 14.9705 7.35201 15.3013 6.67379 15.4342C5.99557 15.5672 5.29316 15.4964 4.65513 15.2307C4.01709 14.9651 3.47199 14.5164 3.08855 13.9414C2.70511 13.3664 2.50049 12.6908 2.50049 11.9996C2.50049 11.3085 2.70511 10.6328 3.08855 10.0578C3.47199 9.4828 4.01709 9.03419 4.65513 8.76852C5.29316 8.50286 5.99557 8.43204 6.67379 8.56499C7.35201 8.69795 7.97569 9.02873 8.4662 9.51562L13.5762 6.72862C13.4009 5.90636 13.5275 5.04848 13.9328 4.31188C14.3381 3.57527 14.9949 3.00915 15.7833 2.71706C16.5717 2.42496 17.4388 2.4264 18.2262 2.72111C19.0136 3.01582 19.6686 3.58411 20.0714 4.32206C20.4742 5.06001 20.598 5.9183 20.42 6.73998C20.242 7.56165 19.7742 8.29181 19.1021 8.79692C18.43 9.30204 17.5986 9.54835 16.7598 9.49082C15.9211 9.43329 15.131 9.07577 14.5342 8.48362L9.4242 11.2706C9.52613 11.7513 9.52613 12.248 9.4242 12.7286L14.5342 15.5156C15.131 14.9235 15.9211 14.566 16.7598 14.5084C17.5986 14.4509 18.43 14.6972 19.1021 15.2023C19.7742 15.7074 20.242 16.4376 20.42 17.2593C20.598 18.0809 20.4742 18.9392 20.0714 19.6772C19.6686 20.4151 19.0136 20.9834 18.2262 21.2781C17.4388 21.5728 16.5717 21.5743 15.7833 21.2822C14.9949 20.9901 14.3381 20.424 13.9328 19.6874C13.5275 18.9508 13.4009 18.0929 13.5762 17.2706Z"/></g><defs><clipPath id="bsclip0_884_18544"><rect width="24" height="24"/></clipPath></defs></symbol><symbol viewBox="0 0 24 24" id="icon-single-left"><g clip-path="url(#buclip0_884_18600)"><path d="M9.583 17.3212C8.553 16.2272 8 15.0002 8 13.0112C8 9.51124 10.457 6.37424 14.03 4.82324L14.923 6.20124C11.588 8.00524 10.936 10.3462 10.676 11.8222C11.213 11.5442 11.916 11.4472 12.605 11.5112C14.409 11.6782 15.831 13.1592 15.831 15.0002C15.831 15.9285 15.4623 16.8187 14.8059 17.4751C14.1495 18.1315 13.2593 18.5002 12.331 18.5002C11.258 18.5002 10.232 18.0102 9.583 17.3212Z"/></g><defs><clipPath id="buclip0_884_18600"><rect width="24" height="24"/></clipPath></defs></symbol><symbol viewBox="0 0 24 24" id="icon-single-right"><g clip-path="url(#bvclip0_884_18604)"><path d="M15.6334 6.79842C16.3452 8.12173 16.5617 9.45005 16.0469 11.3713C15.1411 14.752 11.9559 17.1462 8.1032 17.7196L7.59728 16.1574C11.2856 15.2781 12.5212 13.1856 13.1544 11.8272C12.5637 11.9567 11.8596 11.8684 11.2106 11.6283C9.51132 11.0001 8.52109 9.2015 8.99757 7.42323C9.23782 6.52661 9.82442 5.76214 10.6283 5.29801C11.4322 4.83388 12.3876 4.70811 13.2842 4.94836C14.3206 5.22607 15.1848 5.96493 15.6334 6.79842Z"/></g><defs><clipPath id="bvclip0_884_18604"><rect width="24" height="24"/></clipPath></defs></symbol><symbol viewBox="0 0 24 24" id="icon-star"><g clip-path="url(#bxclip0_884_18717)"><path d="M11.9999 18.26L4.94691 22.208L6.52191 14.28L0.586914 8.792L8.61391 7.84L11.9999 0.5L15.3859 7.84L23.4129 8.792L17.4779 14.28L19.0529 22.208L11.9999 18.26ZM11.9999 15.968L16.2469 18.345L15.2979 13.572L18.8709 10.267L14.0379 9.694L11.9999 5.275L9.96191 9.695L5.12891 10.267L8.70191 13.572L7.75291 18.345L11.9999 15.968Z"/></g><defs><clipPath id="bxclip0_884_18717"><rect width="24" height="24"/></clipPath></defs></symbol><symbol viewBox="0 0 24 24" id="icon-star--hover"><g clip-path="url(#bwclip0_884_18720)"><path d="M11.9999 18.26L4.94691 22.208L6.52191 14.28L0.586914 8.792L8.61391 7.84L11.9999 0.5L15.3859 7.84L23.4129 8.792L17.4779 14.28L19.0529 22.208L11.9999 18.26Z"/></g><defs><clipPath id="bwclip0_884_18720"><rect width="24" height="24"/></clipPath></defs></symbol><symbol viewBox="0 0 24 24" id="icon-tag"><g clip-path="url(#bzclip0_884_18555)"><path d="M3 7.0003L11.445 1.3703C11.6093 1.26066 11.8025 1.20215 12 1.20215C12.1975 1.20215 12.3907 1.26066 12.555 1.3703L21 7.0003V21.0003C21 21.2655 20.8946 21.5199 20.7071 21.7074C20.5196 21.8949 20.2652 22.0003 20 22.0003H4C3.73478 22.0003 3.48043 21.8949 3.29289 21.7074C3.10536 21.5199 3 21.2655 3 21.0003V7.0003ZM5 8.0703V20.0003H19V8.0703L12 3.4043L5 8.0703ZM12 11.0003C11.4696 11.0003 10.9609 10.7896 10.5858 10.4145C10.2107 10.0394 10 9.53073 10 9.0003C10 8.46986 10.2107 7.96116 10.5858 7.58608C10.9609 7.21101 11.4696 7.0003 12 7.0003C12.5304 7.0003 13.0391 7.21101 13.4142 7.58608C13.7893 7.96116 14 8.46986 14 9.0003C14 9.53073 13.7893 10.0394 13.4142 10.4145C13.0391 10.7896 12.5304 11.0003 12 11.0003Z"/></g><defs><clipPath id="bzclip0_884_18555"><rect width="24" height="24"/></clipPath></defs></symbol><symbol viewBox="0 0 24 24" id="icon-tag--hover"><g clip-path="url(#byclip0_884_18558)"><path d="M3 7.0003L11.445 1.3703C11.6093 1.26066 11.8025 1.20215 12 1.20215C12.1975 1.20215 12.3907 1.26066 12.555 1.3703L21 7.0003V21.0003C21 21.2655 20.8946 21.5199 20.7071 21.7074C20.5196 21.8949 20.2652 22.0003 20 22.0003H4C3.73478 22.0003 3.48043 21.8949 3.29289 21.7074C3.10536 21.5199 3 21.2655 3 21.0003V7.0003ZM12 11.0003C12.5304 11.0003 13.0391 10.7896 13.4142 10.4145C13.7893 10.0394 14 9.53073 14 9.0003C14 8.46986 13.7893 7.96116 13.4142 7.58608C13.0391 7.21101 12.5304 7.0003 12 7.0003C11.4696 7.0003 10.9609 7.21101 10.5858 7.58608C10.2107 7.96116 10 8.46986 10 9.0003C10 9.53073 10.2107 10.0394 10.5858 10.4145C10.9609 10.7896 11.4696 11.0003 12 11.0003Z"/></g><defs><clipPath id="byclip0_884_18558"><rect width="24" height="24"/></clipPath></defs></symbol><symbol viewBox="0 0 24 24" id="icon-ticket"><g clip-path="url(#cbclip0_884_18761)"><path d="M2 4C2 3.73478 2.10536 3.48043 2.29289 3.29289C2.48043 3.10536 2.73478 3 3 3H21C21.2652 3 21.5196 3.10536 21.7071 3.29289C21.8946 3.48043 22 3.73478 22 4V9.5C21.337 9.5 20.7011 9.76339 20.2322 10.2322C19.7634 10.7011 19.5 11.337 19.5 12C19.5 12.663 19.7634 13.2989 20.2322 13.7678C20.7011 14.2366 21.337 14.5 22 14.5V20C22 20.2652 21.8946 20.5196 21.7071 20.7071C21.5196 20.8946 21.2652 21 21 21H3C2.73478 21 2.48043 20.8946 2.29289 20.7071C2.10536 20.5196 2 20.2652 2 20V4ZM8.085 19C8.18807 18.707 8.37955 18.4532 8.63301 18.2737C8.88647 18.0942 9.1894 17.9978 9.5 17.9978C9.8106 17.9978 10.1135 18.0942 10.367 18.2737C10.6204 18.4532 10.8119 18.707 10.915 19H20V16.032C19.2488 15.6597 18.6165 15.085 18.1745 14.3725C17.7325 13.6601 17.4982 12.8384 17.4982 12C17.4982 11.1616 17.7325 10.3399 18.1745 9.62746C18.6165 8.91505 19.2488 8.3403 20 7.968V5H10.915C10.8119 5.29299 10.6204 5.54677 10.367 5.72629C10.1135 5.90581 9.8106 6.00223 9.5 6.00223C9.1894 6.00223 8.88647 5.90581 8.63301 5.72629C8.37955 5.54677 8.18807 5.29299 8.085 5H4V19H8.085ZM9.5 11C9.10218 11 8.72064 10.842 8.43934 10.5607C8.15804 10.2794 8 9.89782 8 9.5C8 9.10218 8.15804 8.72064 8.43934 8.43934C8.72064 8.15804 9.10218 8 9.5 8C9.89782 8 10.2794 8.15804 10.5607 8.43934C10.842 8.72064 11 9.10218 11 9.5C11 9.89782 10.842 10.2794 10.5607 10.5607C10.2794 10.842 9.89782 11 9.5 11ZM9.5 16C9.10218 16 8.72064 15.842 8.43934 15.5607C8.15804 15.2794 8 14.8978 8 14.5C8 14.1022 8.15804 13.7206 8.43934 13.4393C8.72064 13.158 9.10218 13 9.5 13C9.89782 13 10.2794 13.158 10.5607 13.4393C10.842 13.7206 11 14.1022 11 14.5C11 14.8978 10.842 15.2794 10.5607 15.5607C10.2794 15.842 9.89782 16 9.5 16Z"/></g><defs><clipPath id="cbclip0_884_18761"><rect width="24" height="24"/></clipPath></defs></symbol><symbol viewBox="0 0 24 24" id="icon-ticket--hover"><g clip-path="url(#caclip0_884_18764)"><path d="M11 21C11 20.6022 10.842 20.2206 10.5607 19.9393C10.2794 19.658 9.89782 19.5 9.5 19.5C9.10218 19.5 8.72064 19.658 8.43934 19.9393C8.15804 20.2206 8 20.6022 8 21H3C2.73478 21 2.48043 20.8946 2.29289 20.7071C2.10536 20.5196 2 20.2652 2 20V4C2 3.73478 2.10536 3.48043 2.29289 3.29289C2.48043 3.10536 2.73478 3 3 3H8C8 3.39782 8.15804 3.77936 8.43934 4.06066C8.72064 4.34196 9.10218 4.5 9.5 4.5C9.89782 4.5 10.2794 4.34196 10.5607 4.06066C10.842 3.77936 11 3.39782 11 3H21C21.2652 3 21.5196 3.10536 21.7071 3.29289C21.8946 3.48043 22 3.73478 22 4V9.5C21.337 9.5 20.7011 9.76339 20.2322 10.2322C19.7634 10.7011 19.5 11.337 19.5 12C19.5 12.663 19.7634 13.2989 20.2322 13.7678C20.7011 14.2366 21.337 14.5 22 14.5V20C22 20.2652 21.8946 20.5196 21.7071 20.7071C21.5196 20.8946 21.2652 21 21 21H11ZM9.5 10.5C9.89782 10.5 10.2794 10.342 10.5607 10.0607C10.842 9.77936 11 9.39782 11 9C11 8.60218 10.842 8.22064 10.5607 7.93934C10.2794 7.65804 9.89782 7.5 9.5 7.5C9.10218 7.5 8.72064 7.65804 8.43934 7.93934C8.15804 8.22064 8 8.60218 8 9C8 9.39782 8.15804 9.77936 8.43934 10.0607C8.72064 10.342 9.10218 10.5 9.5 10.5ZM9.5 16.5C9.89782 16.5 10.2794 16.342 10.5607 16.0607C10.842 15.7794 11 15.3978 11 15C11 14.6022 10.842 14.2206 10.5607 13.9393C10.2794 13.658 9.89782 13.5 9.5 13.5C9.10218 13.5 8.72064 13.658 8.43934 13.9393C8.15804 14.2206 8 14.6022 8 15C8 15.3978 8.15804 15.7794 8.43934 16.0607C8.72064 16.342 9.10218 16.5 9.5 16.5Z"/></g><defs><clipPath id="caclip0_884_18764"><rect width="24" height="24"/></clipPath></defs></symbol><symbol viewBox="0 0 40 40" id="icon-trumpet"><g clip-path="url(#ccclip0_894_99)"><path d="M39.4887 12.2986L27.7019 0.511625C27.2206 0.0302194 26.503 -0.126812 25.8642 0.109204C25.2256 0.345375 24.7828 0.931781 24.7307 1.61069L23.7979 13.7368L17.7893 19.7454L16.0754 18.0314C15.3946 17.3506 14.2906 17.3506 13.6097 18.0314C12.9289 18.7122 12.9289 19.8161 13.6097 20.497L15.3236 22.2108L11.8959 25.6386L10.1821 23.9248C9.50147 23.2438 8.39748 23.244 7.71647 23.9248C7.03561 24.6056 7.03561 25.7094 7.71647 26.3904L9.43029 28.1044L3.21624 34.3185L2.97578 34.078C2.295 33.3972 1.19101 33.3972 0.510155 34.078C-0.170703 34.7588 -0.170703 35.8628 0.510155 36.5436L1.98351 38.017L3.45687 39.4903C3.79734 39.8307 4.24351 40.0009 4.6896 40.0009C5.13585 40.0009 5.58202 39.8306 5.92233 39.4903C6.60319 38.8094 6.60319 37.7055 5.92233 37.0246L5.68186 36.7842L9.31569 33.1504C9.60834 33.9218 10.0622 34.6297 10.6632 35.2307C11.7796 36.3469 13.264 36.9618 14.8427 36.9618C16.4215 36.9618 17.9057 36.347 19.022 35.2307L24.9158 29.3372C27.2202 27.0325 27.2202 23.2825 24.9156 20.9779C24.3146 20.3772 23.6066 19.9234 22.8353 19.6307L26.2635 16.2024L38.3896 15.2697C39.0685 15.2176 39.6549 14.7748 39.8911 14.1362C40.1273 13.4976 39.9702 12.7801 39.4887 12.2986ZM22.4502 26.8715L16.5564 32.7649C16.0986 33.2227 15.49 33.4748 14.8428 33.4748C14.1954 33.4748 13.5865 33.2227 13.1288 32.7649C12.6711 32.3072 12.419 31.6986 12.419 31.0511C12.419 30.4037 12.6711 29.795 13.1288 29.3373L19.0245 23.4417C19.4821 22.9854 20.0897 22.734 20.7361 22.734C21.3836 22.734 21.9926 22.9861 22.4503 23.4436C23.395 24.3888 23.395 25.9265 22.4502 26.8715Z"/></g><defs><clipPath id="ccclip0_894_99"><rect width="40" height="40"/></clipPath></defs></symbol><symbol viewBox="0 0 24 24" id="icon-twitter"><g clip-path="url(#ceclip0_884_18572)"><path d="M15.3 5.55011C14.54 5.54999 13.8103 5.84824 13.2679 6.38068C12.7256 6.91313 12.4139 7.63721 12.4 8.39711L12.372 9.97211C12.3704 10.0567 12.3509 10.1399 12.3148 10.2164C12.2787 10.2929 12.2269 10.3609 12.1627 10.416C12.0985 10.471 12.0233 10.5119 11.9422 10.5359C11.8611 10.5599 11.7758 10.5664 11.692 10.5551L10.131 10.3431C8.07702 10.0631 6.10902 9.11711 4.22102 7.54411C3.62302 10.8541 4.79102 13.1471 7.60402 14.9161L9.35102 16.0141C9.43403 16.0663 9.50299 16.138 9.55187 16.223C9.60075 16.308 9.62806 16.4036 9.63141 16.5016C9.63477 16.5996 9.61407 16.6969 9.57111 16.785C9.52816 16.8731 9.46426 16.9494 9.38502 17.0071L7.79302 18.1701C8.74002 18.2291 9.63902 18.1871 10.385 18.0391C15.103 17.0971 18.24 13.5471 18.24 7.69111C18.24 7.21311 17.228 5.55011 15.3 5.55011ZM10.4 8.36011C10.4175 7.39616 10.7189 6.45878 11.2666 5.66534C11.8142 4.87189 12.5838 4.25763 13.4789 3.89948C14.3741 3.54133 15.3549 3.45519 16.2988 3.65186C17.2426 3.84853 18.1074 4.31926 18.785 5.00511C19.496 5.00011 20.101 5.18011 21.454 4.36011C21.119 6.00011 20.954 6.71211 20.24 7.69111C20.24 15.3331 15.543 19.0491 10.777 20.0001C7.50902 20.6521 2.75702 19.5811 1.39502 18.1591C2.08902 18.1051 4.90902 17.8021 6.53902 16.6091C5.16002 15.7001 -0.32898 12.4701 3.27802 3.78611C4.97102 5.76311 6.68802 7.10911 8.42802 7.82311C9.58602 8.29811 9.87002 8.28811 10.401 8.36111L10.4 8.36011Z"/></g><defs><clipPath id="ceclip0_884_18572"><rect width="24" height="24"/></clipPath></defs></symbol><symbol viewBox="0 0 24 24" id="icon-twitter--hover"><g clip-path="url(#cdclip0_884_18569)"><path d="M22.1618 5.65593C21.3984 5.99362 20.5888 6.2154 19.7598 6.31393C20.6336 5.79136 21.2875 4.96894 21.5998 3.99993C20.7798 4.48793 19.8808 4.82993 18.9438 5.01493C18.3144 4.34151 17.4802 3.89489 16.5708 3.74451C15.6614 3.59413 14.7277 3.74842 13.9151 4.18338C13.1024 4.61834 12.4562 5.30961 12.0769 6.14972C11.6976 6.98983 11.6066 7.93171 11.8178 8.82893C10.1549 8.74558 8.52814 8.31345 7.0431 7.56059C5.55805 6.80773 4.24794 5.75097 3.19781 4.45893C2.8261 5.09738 2.63076 5.82315 2.63181 6.56193C2.63181 8.01193 3.36981 9.29293 4.49181 10.0429C3.82782 10.022 3.17844 9.84271 2.59781 9.51993V9.57193C2.59801 10.5376 2.93218 11.4735 3.54366 12.221C4.15513 12.9684 5.00629 13.4814 5.95281 13.6729C5.33642 13.84 4.69012 13.8646 4.06281 13.7449C4.32968 14.5762 4.84982 15.3031 5.5504 15.824C6.25099 16.3449 7.09694 16.6337 7.96981 16.6499C7.10229 17.3313 6.10899 17.8349 5.04669 18.1321C3.98439 18.4293 2.87394 18.5142 1.77881 18.3819C3.69051 19.6114 5.9159 20.264 8.18881 20.2619C15.8818 20.2619 20.0888 13.8889 20.0888 8.36193C20.0888 8.18193 20.0838 7.99993 20.0758 7.82193C20.8947 7.23009 21.6014 6.49695 22.1628 5.65693L22.1618 5.65593Z"/></g><defs><clipPath id="cdclip0_884_18569"><rect width="24" height="24"/></clipPath></defs></symbol><symbol viewBox="0 0 24 24" id="icon-zoom-in"><g clip-path="url(#cgclip0_884_18451)"><path d="M18.031 16.617L22.314 20.899L20.899 22.314L16.617 18.031C15.0237 19.3082 13.042 20.0029 11 20C6.032 20 2 15.968 2 11C2 6.032 6.032 2 11 2C15.968 2 20 6.032 20 11C20.0029 13.042 19.3082 15.0237 18.031 16.617ZM16.025 15.875C17.2941 14.5699 18.0029 12.8204 18 11C18 7.132 14.867 4 11 4C7.132 4 4 7.132 4 11C4 14.867 7.132 18 11 18C12.8204 18.0029 14.5699 17.2941 15.875 16.025L16.025 15.875ZM10 10V7H12V10H15V12H12V15H10V12H7V10H10Z"/></g><defs><clipPath id="cgclip0_884_18451"><rect width="24" height="24"/></clipPath></defs></symbol><symbol viewBox="0 0 24 24" id="icon-zoom-in--hover"><g clip-path="url(#cfclip0_884_18454)"><path d="M18.031 16.617L22.314 20.899L20.899 22.314L16.617 18.031C15.0237 19.3082 13.042 20.0029 11 20C6.032 20 2 15.968 2 11C2 6.032 6.032 2 11 2C15.968 2 20 6.032 20 11C20.0029 13.042 19.3082 15.0237 18.031 16.617ZM10 10H7V12H10V15H12V12H15V10H12V7H10V10Z"/></g><defs><clipPath id="cfclip0_884_18454"><rect width="24" height="24"/></clipPath></defs></symbol><symbol viewBox="0 0 24 24" id="icon-zoom-out"><g clip-path="url(#ciclip0_884_18457)"><path d="M18.031 16.617L22.314 20.899L20.899 22.314L16.617 18.031C15.0237 19.3082 13.042 20.0029 11 20C6.032 20 2 15.968 2 11C2 6.032 6.032 2 11 2C15.968 2 20 6.032 20 11C20.0029 13.042 19.3082 15.0237 18.031 16.617ZM16.025 15.875C17.2941 14.5699 18.0029 12.8204 18 11C18 7.132 14.867 4 11 4C7.132 4 4 7.132 4 11C4 14.867 7.132 18 11 18C12.8204 18.0029 14.5699 17.2941 15.875 16.025L16.025 15.875ZM7 10H15V12H7V10Z"/></g><defs><clipPath id="ciclip0_884_18457"><rect width="24" height="24"/></clipPath></defs></symbol><symbol viewBox="0 0 24 24" id="icon-zoom-out--hover"><g clip-path="url(#chclip0_884_18460)"><path d="M18.031 16.617L22.314 20.899L20.899 22.314L16.617 18.031C15.0237 19.3082 13.042 20.0029 11 20C6.032 20 2 15.968 2 11C2 6.032 6.032 2 11 2C15.968 2 20 6.032 20 11C20.0029 13.042 19.3082 15.0237 18.031 16.617ZM7 10V12H15V10H7Z"/></g><defs><clipPath id="chclip0_884_18460"><rect width="24" height="24"/></clipPath></defs></symbol></svg>